<svg xmlns="http://www.w3.org/2000/svg" viewBox="0 0 384 384"><defs><style>.cls-1{fill:#ff496c;}.cls-2{fill:#fd405f;}.cls-3{fill:#96efff;}.cls-4{fill:#6ce0f9;}.cls-5{fill:#40daf4;}</style></defs><g id="Layer_3" data-name="Layer 3"><polygon class="cls-1" points="248.17 193.1 190.5 296.91 229.25 194.58 229.84 193.01 248.17 193.1"/><polygon class="cls-1" points="203.15 199.98 203.03 200.92 190.5 296.91 177.96 200.92 177.84 199.98 190.5 199.98 203.15 199.98"/><polygon class="cls-1" points="151.74 194.58 190.5 296.91 132.82 193.1 151.15 193.01 151.74 194.58"/><polygon class="cls-1" points="131.92 193.55 132.36 194.45 100.45 189.01 89.99 163.51 119.56 168.87 119.8 168.91 131.91 193.55 131.92 193.55"/><polygon class="cls-1" points="164.82 169.47 177.29 201.01 152.08 194.45 164.82 169.47"/><polygon class="cls-1" points="216.17 169.47 228.91 194.45 203.7 201.01 216.17 169.47"/><polygon class="cls-1" points="291 163.51 280.54 189.01 248.63 194.45 249.07 193.55 249.08 193.55 261.19 168.91 261.43 168.87 291 163.51"/><polygon class="cls-1" points="234.82 108 261.1 167.05 216.91 167.11 216.91 167.1 222.77 107.89 234.82 107.89 234.82 108"/><polygon class="cls-1" points="164.08 167.1 190.5 107.89 216.91 167.1 216.91 167.11 216.17 167.11 190.5 167.15 164.82 167.11 164.08 167.11 164.08 167.1"/><polygon class="cls-1" points="164.08 167.1 164.08 167.11 119.89 167.05 146.17 108 146.17 107.89 158.22 107.89 164.08 167.1"/><polygon class="cls-2" points="248.63 194.45 280.54 189.01 190.5 296.91 248.17 193.1 249.07 193.55 248.63 194.45"/><polygon class="cls-2" points="229.25 194.58 190.5 296.91 203.03 200.92 203.7 201.01 228.91 194.45 229.25 194.58"/><polygon class="cls-2" points="177.96 200.92 190.5 296.91 151.74 194.58 152.08 194.45 177.29 201.01 177.96 200.92"/><polygon class="cls-2" points="132.82 193.1 190.5 296.91 100.45 189.01 132.36 194.45 131.92 193.55 132.82 193.1"/><polygon class="cls-2" points="164.08 167.11 164.82 167.11 164.82 169.47 152.08 194.45 151.74 194.58 151.15 193.01 132.82 193.1 131.92 193.55 131.91 193.55 119.8 168.91 119.56 168.87 119.89 167.05 164.08 167.11"/><polygon class="cls-2" points="203.15 199.98 190.5 199.98 177.84 199.98 177.96 200.92 177.29 201.01 164.82 169.47 164.82 167.11 190.5 167.15 216.17 167.11 216.17 169.47 203.7 201.01 203.03 200.92 203.15 199.98"/><polygon class="cls-2" points="261.1 167.05 261.43 168.87 261.19 168.91 249.08 193.55 249.07 193.55 248.17 193.1 229.84 193.01 229.25 194.58 228.91 194.45 216.17 169.47 216.17 167.11 216.91 167.11 261.1 167.05"/><polygon class="cls-2" points="242.59 107.89 292.45 159.98 291 163.51 261.43 168.87 261.1 167.05 234.82 108 234.82 107.89 242.59 107.89"/><polygon class="cls-2" points="222.77 107.89 216.91 167.1 190.5 107.89 222.77 107.89"/><polygon class="cls-2" points="190.5 107.89 164.08 167.1 158.22 107.89 190.5 107.89"/><polygon class="cls-2" points="146.17 107.89 146.17 108 119.89 167.05 119.56 168.87 89.99 163.51 88.54 159.98 138.4 107.89 146.17 107.89"/><path class="cls-3" d="M436.11,244.11a191.43,191.43,0,0,1-13.58,71.05l0,0-28.55,5.68-17.85-26.64A141.23,141.23,0,0,0,257.84,103.65l0-.21,19.31-26.06L262.57,53C360,62.27,436.11,144.3,436.11,244.11Z" transform="translate(-52.11 -52.11)"/><path class="cls-4" d="M390,331.3l27.91-5.55A192.07,192.07,0,0,1,70,325.21l0,0,15.45-24.68,31.63,5.29h0a141.17,141.17,0,0,0,254.64-1.53l.17.08Z" transform="translate(-52.11 -52.11)"/><path class="cls-5" d="M246.88,103v0c-.92,0-1.84,0-2.77,0A141.2,141.2,0,0,0,112.74,295.75l-.17.07-32-5.35L65.47,314.6a191.23,191.23,0,0,1-13.36-70.49c0-106,86-192,192-192,2.32,0,4.62,0,6.92.12l15,25Z" transform="translate(-52.11 -52.11)"/></g></svg>