<?xml version="1.0" standalone="no"?>
<!DOCTYPE svg PUBLIC "-//W3C//DTD SVG 20010904//EN"
 "http://www.w3.org/TR/2001/REC-SVG-20010904/DTD/svg10.dtd">
<svg version="1.0" xmlns="http://www.w3.org/2000/svg"
 width="512.000000pt" height="512.000000pt" viewBox="0 0 512.000000 512.000000"
 preserveAspectRatio="xMidYMid meet">
<metadata>
Created by potrace 1.14, written by Peter Selinger 2001-2017
</metadata>
<g transform="translate(0.000000,512.000000) scale(0.100000,-0.100000)"
fill="#000000" stroke="none">
<path d="M3530 4888 c-14 -13 -122 -104 -240 -203 -288 -241 -1182 -991 -1315
-1103 -38 -33 -270 -227 -290 -243 -19 -16 -94 -79 -145 -123 -14 -11 -52 -43
-85 -71 -33 -27 -72 -61 -87 -75 l-28 -25 231 -275 c127 -151 287 -342 356
-424 l125 -149 -28 -26 c-25 -23 -243 -206 -298 -251 -10 -8 -23 -19 -30 -25
-23 -21 -132 -113 -155 -131 -13 -10 -28 -24 -35 -29 -6 -6 -81 -69 -166 -140
-85 -71 -157 -132 -160 -135 -3 -3 -57 -48 -120 -100 -63 -52 -120 -99 -126
-105 -24 -21 -118 -101 -133 -111 -13 -10 -10 -18 22 -58 21 -25 43 -51 50
-58 7 -7 68 -80 137 -163 68 -82 127 -152 130 -155 3 -3 61 -72 130 -155 69
-82 135 -161 146 -175 12 -14 50 -59 84 -100 35 -41 66 -75 70 -75 11 0 28 13
497 407 230 193 440 369 467 392 27 23 66 55 85 72 20 17 135 114 256 215 121
101 346 289 500 419 154 129 308 258 342 285 34 28 64 55 66 61 3 6 -4 22 -16
35 -26 29 -113 133 -336 399 -90 107 -173 206 -185 220 -177 209 -171 199
-149 220 12 10 103 88 204 172 101 84 195 163 209 175 14 11 46 38 71 59 64
54 127 106 250 210 58 49 128 107 154 129 27 22 53 45 59 50 6 6 75 64 154
129 78 66 142 122 142 125 0 4 -10 17 -22 31 -24 26 -121 140 -150 175 -24 30
-197 236 -222 265 -11 14 -91 108 -176 210 -85 102 -168 200 -185 218 l-30 32
-25 -22z"/>
</g>
</svg>
